<svg xmlns="http://www.w3.org/2000/svg" viewBox="0 0 168 22" fill="black">
  <path d="M158.236 7.27959V5.59644H160.647V17.976H158.242V16.2844C158.169 16.3516 158.111 16.4057 158.052 16.459C157.284 17.1544 156.391 17.6249 155.366 17.8499C154.775 17.9806 154.177 18.0114 153.573 17.9507C152.334 17.8247 151.257 17.343 150.33 16.5392C149.516 15.8326 148.938 14.9681 148.572 13.9674C148.388 13.4633 148.27 12.9442 148.222 12.4112C148.111 11.2181 148.303 10.0727 148.832 8.98891C149.382 7.86304 150.201 6.9706 151.306 6.33767C151.972 5.9568 152.69 5.71687 153.459 5.63099C155.029 5.45548 156.433 5.85597 157.676 6.79883C157.857 6.93512 158.02 7.09289 158.191 7.24038C158.202 7.24972 158.214 7.25999 158.235 7.27959H158.236ZM157.887 11.8034C157.884 11.4226 157.849 11.0585 157.752 10.7029C157.428 9.50609 156.728 8.59773 155.569 8.06002C154.885 7.74262 154.164 7.6642 153.424 7.82758C152.619 8.00401 151.957 8.41383 151.423 9.01966C150.836 9.6862 150.517 10.4648 150.429 11.3367C150.371 11.893 150.412 12.4429 150.571 12.9806C150.889 14.0644 151.534 14.9028 152.565 15.4358C153.265 15.798 154.012 15.9128 154.791 15.7598C155.705 15.5796 156.438 15.1035 157.005 14.3884C157.61 13.6248 157.878 12.7482 157.888 11.8044L157.887 11.8034Z" />
  <path d="M46.9363 9.99914V17.9799H44.3406V10.5677C44.3406 9.68549 44.0667 8.99846 43.5228 8.50834C42.9787 8.01544 42.3049 7.76711 41.5112 7.76711C40.9747 7.76711 40.484 7.88194 40.0447 8.10599C39.6054 8.32909 39.2558 8.6493 39.0062 9.06376C38.7538 9.47737 38.6314 9.97121 38.6314 10.5434V17.9808H36.0077V10.5686C36.0077 9.68646 35.7412 8.99934 35.2038 8.50927C34.6673 8.01636 33.9999 7.76805 33.2072 7.76805C32.6521 7.76805 32.1585 7.88287 31.7257 8.10692C31.293 8.33003 30.9509 8.65024 30.7022 9.06474C30.4498 9.47825 30.3274 9.9721 30.3274 10.5443V17.9818H27.7037V5.59107H30.3274V6.92321C30.6732 6.51619 31.0882 6.18199 31.5706 5.915C32.281 5.52572 33.0773 5.33155 33.9606 5.33155C34.844 5.33155 35.6328 5.52199 36.332 5.9038C37.0237 6.27814 37.5724 6.79998 37.9864 7.47305C38.437 6.81398 39.0174 6.29215 39.7343 5.91407C40.47 5.52479 41.2766 5.33062 42.1599 5.33062C43.0432 5.33062 43.8434 5.52106 44.5603 5.90287C45.2772 6.28468 45.854 6.82052 46.2867 7.52253C46.7157 8.22081 46.9354 9.04883 46.9354 9.99914H46.9363Z" />
  <path d="M60.6957 8.31097C60.1835 7.39611 59.4881 6.67263 58.6048 6.13679C57.7253 5.60001 56.7119 5.33023 55.5698 5.33023C54.4275 5.33023 53.2956 5.61868 52.3254 6.18719C51.3561 6.75945 50.5877 7.52682 50.0148 8.49488C49.4456 9.46296 49.1604 10.5617 49.1604 11.7856C49.1604 13.0094 49.4483 14.1147 50.0287 15.0902C50.6092 16.0695 51.3916 16.8359 52.3749 17.3979C53.3629 17.9599 54.4799 18.2399 55.723 18.2399C56.6923 18.2399 57.6046 18.0597 58.4627 17.6966C59.317 17.3335 60.0489 16.7968 60.6546 16.091L58.9926 14.4312C58.5964 14.8811 58.1168 15.2191 57.5542 15.4534C56.9915 15.6876 56.3718 15.8025 55.6978 15.8025C54.9192 15.8025 54.2275 15.6336 53.6218 15.2984C53.0161 14.9605 52.5478 14.4844 52.2198 13.8729C52.0393 13.5378 51.9094 13.1709 51.8299 12.7713H61.3024C61.3565 12.5118 61.3921 12.2784 61.421 12.0693C61.4463 11.864 61.4576 11.6661 61.4576 11.4756C61.4576 10.2844 61.2051 9.22956 60.6929 8.31097H60.6957ZM51.8393 10.6187C51.915 10.2518 52.0337 9.9166 52.1964 9.61046C52.5067 9.02046 52.9498 8.56303 53.519 8.23535C54.0919 7.90769 54.7556 7.74245 55.5193 7.74245C56.2437 7.74245 56.8634 7.88995 57.3719 8.18495C57.8841 8.47621 58.2729 8.90098 58.5394 9.45174C58.7085 9.79711 58.831 10.1864 58.9067 10.6177H51.8383L51.8393 10.6187Z" />
  <path d="M83.0798 9.99914V17.9799H80.484V10.5677C80.484 9.68549 80.2102 8.99846 79.6662 8.50834C79.1222 8.01544 78.451 7.76711 77.6547 7.76711C77.1182 7.76711 76.6312 7.88194 76.1882 8.10599C75.7479 8.32909 75.4021 8.6493 75.1497 9.06376C74.9011 9.47737 74.7749 9.97121 74.7749 10.5434V17.9808H72.1539V10.5686C72.1539 9.68646 71.8838 8.99934 71.35 8.50927C70.8126 8.01636 70.1462 7.76805 69.3498 7.76805C68.7982 7.76805 68.3048 7.88287 67.872 8.10692C67.4392 8.33003 67.0971 8.65024 66.8447 9.06474C66.5961 9.47825 66.4699 9.9721 66.4699 10.5443V17.9818H63.849V5.59107H66.4699V6.92695C66.8158 6.51992 67.2308 6.18199 67.7168 5.915C68.4234 5.52572 69.2199 5.33155 70.1031 5.33155C70.9865 5.33155 71.7754 5.52199 72.4782 5.9038C73.1671 6.27814 73.7149 6.79998 74.1289 7.47305C74.5795 6.81398 75.1637 6.29215 75.8769 5.91407C76.6125 5.52479 77.4192 5.33062 78.3025 5.33062C79.1858 5.33062 79.9859 5.52106 80.7028 5.90287C81.4197 6.28468 81.9974 6.82052 82.4292 7.52253C82.862 8.22081 83.0779 9.04883 83.0779 9.99914H83.0798Z" />
  <path d="M91.7998 18.2395C90.5882 18.2395 89.4932 17.9502 88.5166 17.3714C87.539 16.7925 86.7604 16.0149 86.1809 15.0384C85.6014 14.062 85.3116 12.9698 85.3116 11.7599C85.3116 10.5501 85.6014 9.46623 86.1809 8.50659C86.7604 7.54786 87.539 6.77863 88.5166 6.19984C89.4932 5.62106 90.5882 5.33167 91.7998 5.33167C93.0106 5.33167 94.1047 5.61639 95.0821 6.18677C96.0595 6.75716 96.8373 7.52639 97.4179 8.49352C97.9976 9.46155 98.2875 10.5501 98.2875 11.759C98.2875 12.9679 97.9976 14.062 97.4179 15.0376C96.8382 16.014 96.0595 16.7916 95.0821 17.3704C94.1047 17.9492 93.0097 18.2386 91.7998 18.2386V18.2395ZM91.7998 15.7517C92.5431 15.7517 93.2006 15.5789 93.7715 15.2336C94.3424 14.8882 94.7922 14.413 95.121 13.8081C95.4497 13.2031 95.615 12.5208 95.615 11.7608C95.615 11.001 95.4506 10.3269 95.121 9.73887C94.7922 9.15161 94.3424 8.68956 93.7715 8.35256C93.2006 8.01555 92.5422 7.84752 91.7998 7.84752C91.0566 7.84752 90.4194 8.01555 89.8405 8.35256C89.2608 8.68956 88.8065 9.15161 88.4778 9.73887C88.1485 10.326 87.9839 11 87.9839 11.7608C87.9839 12.5217 88.1485 13.2041 88.4778 13.8081C88.8056 14.413 89.2599 14.8882 89.8405 15.2336C90.4194 15.5789 91.0734 15.7517 91.7998 15.7517Z" />
  <path d="M109.757 6.7589L108.044 8.51955C107.803 8.24228 107.536 8.04811 107.24 7.93609C106.945 7.82407 106.599 7.76711 106.202 7.76711C105.388 7.76711 104.712 8.03691 104.176 8.56995C103.642 9.10672 103.373 9.91987 103.373 11.0074V17.9808H100.751V5.59014H103.373V6.95495L103.503 6.77104C104.213 5.81324 105.269 5.33062 106.671 5.33062C107.277 5.33062 107.832 5.44543 108.343 5.66855C108.856 5.8954 109.324 6.25573 109.757 6.7589Z" />
  <path d="M111.265 17.9809V5.59112H113.859V17.9809H111.265Z" />
  <path d="M127.913 8.31097C127.401 7.39611 126.706 6.67263 125.822 6.13679C124.939 5.60001 123.93 5.33023 122.787 5.33023C121.645 5.33023 120.513 5.61868 119.543 6.18719C118.573 6.75945 117.803 7.52682 117.233 8.49488C116.663 9.46296 116.375 10.5617 116.375 11.7856C116.375 13.0094 116.666 14.1147 117.246 15.0902C117.823 16.0695 118.61 16.8359 119.592 17.3979C120.58 17.9599 121.694 18.2399 122.941 18.2399C123.91 18.2399 124.822 18.0597 125.681 17.6966C126.534 17.3335 127.267 16.7968 127.872 16.091L126.21 14.4312C125.814 14.8811 125.334 15.2191 124.772 15.4534C124.209 15.6876 123.59 15.8025 122.915 15.8025C122.137 15.8025 121.445 15.6336 120.839 15.2984C120.234 14.9605 119.766 14.4844 119.438 13.8729C119.257 13.5378 119.127 13.1709 119.048 12.7713H128.52C128.57 12.5118 128.609 12.2784 128.636 12.0693C128.665 11.864 128.675 11.6661 128.675 11.4756C128.675 10.2844 128.419 9.22956 127.91 8.31097H127.913ZM119.053 10.6187C119.129 10.2518 119.251 9.9166 119.414 9.61046C119.724 9.02046 120.168 8.56303 120.737 8.23535C121.306 7.90769 121.973 7.74245 122.733 7.74245C123.493 7.74245 124.081 7.88995 124.589 8.18495C125.102 8.47621 125.491 8.90098 125.757 9.45174C125.927 9.79711 126.049 10.1864 126.125 10.6177H119.053V10.6187Z" />
  <path d="M135.067 18.2395C134.392 18.2395 133.739 18.149 133.108 17.967C132.476 17.7859 131.896 17.5263 131.369 17.1893C130.841 16.8524 130.379 16.4509 129.981 15.9841L131.642 14.3252C132.092 14.8434 132.607 15.2326 133.186 15.4912C133.766 15.7507 134.41 15.8805 135.119 15.8805C135.829 15.8805 136.334 15.7732 136.69 15.5566C137.044 15.3409 137.222 15.0254 137.222 14.611C137.222 14.1965 137.065 13.8725 136.754 13.6391C136.443 13.4058 136.036 13.2162 135.535 13.0687C135.033 12.9222 134.509 12.7663 133.964 12.602C133.419 12.4377 132.896 12.2258 132.394 11.9672C131.892 11.7076 131.485 11.3455 131.174 10.8787C130.863 10.4119 130.707 9.81629 130.707 9.09001C130.707 8.31242 130.888 7.64775 131.252 7.09417C131.615 6.54152 132.129 6.1093 132.796 5.79844C133.461 5.48757 134.262 5.33167 135.196 5.33167C136.182 5.33167 137.056 5.50904 137.817 5.86284C138.578 6.21759 139.21 6.74036 139.712 7.43117L138.051 9.09001C137.687 8.62328 137.262 8.27788 136.779 8.0529C136.295 7.82886 135.74 7.71589 135.117 7.71589C134.495 7.71589 134.014 7.81578 133.677 8.01369C133.339 8.21253 133.171 8.50192 133.171 8.88189C133.171 9.26182 133.331 9.53437 133.652 9.75001C133.971 9.96662 134.379 10.1431 134.872 10.2812C135.365 10.4194 135.888 10.5706 136.442 10.735C136.995 10.8993 137.524 11.1242 138.026 11.4089C138.527 11.6937 138.934 12.0699 139.245 12.5366C139.557 13.0034 139.713 13.6167 139.713 14.3766C139.713 15.5687 139.298 16.5106 138.467 17.2014C137.635 17.8932 136.503 18.2386 135.067 18.2386V18.2395Z" />
  <path d="M164.441 17.9809V5.59112H167.035V17.9809H164.441Z" />
  <path d="M112.561 3.14847C113.421 3.14847 114.118 2.45215 114.118 1.59321C114.118 0.734267 113.421 0.0379525 112.561 0.0379525C111.701 0.0379525 111.004 0.734267 111.004 1.59321C111.004 2.45215 111.701 3.14847 112.561 3.14847Z" />
  <path d="M144.308 18.2399C145.168 18.2399 145.865 17.5435 145.865 16.6846C145.865 15.8257 145.168 15.1294 144.308 15.1294C143.447 15.1294 142.75 15.8257 142.75 16.6846C142.75 17.5435 143.447 18.2399 144.308 18.2399Z" />
  <path d="M165.739 3.14847C166.599 3.14847 167.296 2.45215 167.296 1.59321C167.296 0.734267 166.599 0.0379525 165.739 0.0379525C164.879 0.0379525 164.182 0.734267 164.182 1.59321C164.182 2.45215 164.879 3.14847 165.739 3.14847Z" />
  <path d="M21.0042 5.18314V22L11.5044 18.7634L17.3854 3.91781L21.0042 5.18314ZM17.0402 0L11.6867 13.5576L0 13.535L13.5692 0H17.0402Z" />
</svg>